<svg xmlns="http://www.w3.org/2000/svg" width="96" height="96" viewBox="0 0 96 96" role="img" aria-label="QRCode fictício da vaga">
  <rect width="96" height="96" fill="#ffffff"/>
  <rect x="0" y="0" width="96" height="96" fill="#ffffff"/>

  <rect x="6" y="6" width="24" height="24" fill="#111827"/>
  <rect x="10" y="10" width="16" height="16" fill="#ffffff"/>
  <rect x="14" y="14" width="8" height="8" fill="#111827"/>

  <rect x="66" y="6" width="24" height="24" fill="#111827"/>
  <rect x="70" y="10" width="16" height="16" fill="#ffffff"/>
  <rect x="74" y="14" width="8" height="8" fill="#111827"/>

  <rect x="6" y="66" width="24" height="24" fill="#111827"/>
  <rect x="10" y="70" width="16" height="16" fill="#ffffff"/>
  <rect x="14" y="74" width="8" height="8" fill="#111827"/>

  <rect x="38" y="6" width="6" height="6" fill="#111827"/>
  <rect x="50" y="6" width="6" height="6" fill="#111827"/>
  <rect x="44" y="12" width="6" height="6" fill="#111827"/>
  <rect x="38" y="20" width="6" height="6" fill="#111827"/>
  <rect x="50" y="20" width="6" height="6" fill="#111827"/>

  <rect x="36" y="36" width="8" height="8" fill="#111827"/>
  <rect x="48" y="36" width="8" height="8" fill="#111827"/>
  <rect x="60" y="36" width="8" height="8" fill="#111827"/>
  <rect x="36" y="48" width="8" height="8" fill="#111827"/>
  <rect x="52" y="48" width="8" height="8" fill="#111827"/>
  <rect x="68" y="48" width="8" height="8" fill="#111827"/>
  <rect x="36" y="60" width="8" height="8" fill="#111827"/>
  <rect x="48" y="60" width="8" height="8" fill="#111827"/>
  <rect x="60" y="60" width="8" height="8" fill="#111827"/>

  <rect x="78" y="36" width="6" height="6" fill="#111827"/>
  <rect x="84" y="42" width="6" height="6" fill="#111827"/>
  <rect x="78" y="54" width="6" height="6" fill="#111827"/>
  <rect x="84" y="60" width="6" height="6" fill="#111827"/>

  <rect x="6" y="40" width="6" height="6" fill="#111827"/>
  <rect x="14" y="48" width="6" height="6" fill="#111827"/>
  <rect x="22" y="40" width="6" height="6" fill="#111827"/>
  <rect x="14" y="56" width="6" height="6" fill="#111827"/>
</svg>
